<?xml version="1.0" encoding="UTF-8"?>
<!DOCTYPE svg PUBLIC "-//W3C//DTD SVG 1.1//EN" "http://www.w3.org/Graphics/SVG/1.1/DTD/svg11.dtd">
<svg version="1.1" xmlns="http://www.w3.org/2000/svg" xmlns:xlink="http://www.w3.org/1999/xlink" x="0px" y="0px" width="128" height="128" viewBox="0, 0, 128, 128">
  <g id="Background">
    <rect x="0" y="0" width="128" height="128" fill="#000000" fill-opacity="0"/>
  </g>
  <g id="Background">
    <path d="M18.093,6 L109.907,6 C116.561,6 122,11.439 122,18.093 L122,109.907 C122,116.561 116.561,122 109.907,122 L18.093,122 C11.439,122 6,116.561 6,109.907 L6,18.093 C6,11.439 11.439,6 18.093,6" fill="#727272"/>
    <path d="M32.274,48.888 L61.757,61.237 C63.228,61.849 64.132,63.211 64.132,64.799 L64.132,101.217 C64.132,102.549 63.52,103.696 62.411,104.431 C61.301,105.17 60.004,105.294 58.775,104.779 L29.292,92.43 C27.826,91.813 26.922,90.456 26.922,88.867 L26.922,52.45 C26.922,51.116 27.537,49.975 28.643,49.236 C29.753,48.499 31.045,48.377 32.274,48.888" fill="#EBECEC"/>
    <path d="M100.271,48.888 L70.786,61.237 C69.32,61.854 68.416,63.211 68.416,64.799 L68.416,101.217 C68.416,102.549 69.028,103.691 70.133,104.431 C71.244,105.17 72.54,105.294 73.768,104.779 L103.253,92.43 C104.719,91.817 105.628,90.456 105.628,88.867 L105.628,52.45 C105.628,51.116 105.011,49.97 103.901,49.236 C102.791,48.495 101.499,48.372 100.271,48.888" fill="#84D0F4"/>
    <path d="M64.237,22.556 L34.995,38.485 C33.661,39.211 32.914,40.553 32.991,42.074 C33.063,43.595 33.954,44.855 35.361,45.445 L64.433,57.551 C65.424,57.963 66.42,57.963 67.411,57.547 L97.092,45.116 C98.504,44.526 99.395,43.252 99.457,41.723 C99.527,40.197 98.755,38.851 97.403,38.137 L67.891,22.532 C66.713,21.911 65.411,21.916 64.237,22.556" fill="#84D0F4"/>
    <path d="M50.309,86.301 C52.423,87.155 54.122,89.689 54.103,91.932 C54.08,94.178 52.35,95.297 50.244,94.439 C48.139,93.58 46.445,91.073 46.463,88.83 C46.476,86.583 48.198,85.445 50.309,86.301 z M37.009,62.25 C39.12,63.077 40.827,65.643 40.823,67.933 C40.818,70.216 39.092,71.385 36.996,70.554 C34.895,69.723 33.2,67.196 33.2,64.909 C33.2,62.621 34.9,61.424 37.009,62.25" fill="#727272"/>
    <path d="M82.386,67.261 C84.26,66.562 85.861,68.165 85.935,70.823 C86.013,73.462 84.561,76.153 82.702,76.837 C80.847,77.522 79.267,75.956 79.172,73.335 C79.07,70.691 80.514,67.96 82.386,67.261 z M93.722,72.787 C95.599,72.097 97.102,69.375 97.055,66.703 C97.015,64.023 95.43,62.407 93.525,63.114 C91.631,63.818 90.145,66.571 90.21,69.243 C90.269,71.891 91.84,73.477 93.722,72.787 z M83.2,92.156 C85.022,91.502 86.456,88.908 86.386,86.356 C86.309,83.792 84.748,82.249 82.898,82.921 C81.062,83.593 79.642,86.219 79.737,88.766 C79.829,91.297 81.377,92.808 83.2,92.156 z M93.844,78.933 C95.708,78.253 97.269,79.811 97.306,82.396 C97.348,84.977 95.877,87.593 94.023,88.263 C92.183,88.925 90.635,87.401 90.58,84.835 C90.516,82.268 91.977,79.615 93.844,78.933" fill="#727272"/>
    <path d="M45.873,37.863 C47.563,36.777 50.454,36.466 52.221,37.228 C53.989,37.987 53.953,39.516 52.181,40.586 C50.414,41.659 47.66,41.868 45.956,41.138 C44.257,40.402 44.183,38.95 45.873,37.863 z M56.373,42.393 C58.187,41.353 61.182,41.088 62.964,41.855 C64.749,42.627 64.612,44.106 62.726,45.129 C60.844,46.147 57.981,46.339 56.268,45.599 C54.556,44.855 54.561,43.436 56.373,42.393 z M73.243,49.655 C75.244,48.686 75.476,47.23 73.668,46.458 C71.864,45.687 68.777,45.901 66.845,46.901 C64.918,47.897 64.822,49.291 66.549,50.035 C68.269,50.774 71.244,50.628 73.243,49.655 z M87.524,43.075 C89.525,42.102 89.757,40.645 87.949,39.874 C86.14,39.105 83.053,39.321 81.126,40.317 C79.194,41.316 79.103,42.709 80.825,43.449 C82.55,44.193 85.52,44.043 87.524,43.075 z M70.654,35.814 C72.466,34.766 75.458,34.502 77.243,35.274 C79.03,36.046 78.893,37.526 77.007,38.544 C75.12,39.563 72.262,39.759 70.549,39.015 C68.837,38.274 68.841,36.854 70.654,35.814 z M60.154,31.283 C61.844,30.196 64.731,29.885 66.502,30.644 C68.269,31.406 68.229,32.936 66.462,34.004 C64.694,35.072 61.941,35.284 60.236,34.552 C58.534,33.822 58.464,32.369 60.154,31.283" fill="#727272"/>
  </g>
  <defs/>
</svg>
